<?xml version="1.0" standalone="no"?><!DOCTYPE svg PUBLIC "-//W3C//DTD SVG 1.1//EN" "http://www.w3.org/Graphics/SVG/1.1/DTD/svg11.dtd"><svg class="icon" width="50px" height="50.00px" viewBox="0 0 1024 1024" version="1.1" xmlns="http://www.w3.org/2000/svg"><path d="M775.657739 575.309913a98.749217 98.749217 0 0 0 21.993739-62.330435 104.537043 104.537043 0 0 0-106.050782-101.687652h-11.397566a77.200696 77.200696 0 0 0 20.836174-33.03513 73.46087 73.46087 0 0 0 12.555131-40.870957 77.824 77.824 0 0 0-79.070609-76.132174H528.205913a155.737043 155.737043 0 0 1-19.500522-3.561739c-15.582609-8.904348-17.808696-29.295304-17.808695-47.905391 0-5.787826 6.054957-40.69287 6.856347-46.213565-66.159304 12.02087-122.078609 97.324522-122.078608 164.819478 0 27.959652 10.24 68.741565 25.288348 82.899478h-68.563479a104.448 104.448 0 0 0-106.139826 102.043826 98.749217 98.749217 0 0 0 21.993739 62.330435A147.010783 147.010783 0 0 0 138.907826 714.930087c0 80.13913 68.029217 145.497043 151.373913 145.497043h443.703652c83.166609 0 151.373913-65.446957 151.373913-145.497043a147.010783 147.010783 0 0 0-109.701565-139.620174z" fill="#FFBCA1" /><path d="M733.985391 880.461913H290.014609c-94.386087 0-171.230609-74.262261-171.230609-165.531826A166.15513 166.15513 0 0 1 218.156522 564.98087a117.00313 117.00313 0 0 1-11.842783-51.556174 124.66087 124.66087 0 0 1 126.085565-122.167653h34.370783a201.505391 201.505391 0 0 1-11.219478-62.864695c0-73.728 60.727652-170.429217 138.996869-184.587131a20.034783 20.034783 0 0 1 23.418435 22.528c0 1.513739-0.801391 5.075478-1.513739 9.616696-1.335652 8.192-4.897391 29.918609-5.075478 34.192696 0 10.150957 0.623304 24.041739 5.876869 29.028174 3.472696 0.712348 9.527652 1.78087 12.02087 2.048h105.249391a97.947826 97.947826 0 0 1 99.105391 96.166956 93.317565 93.317565 0 0 1-14.336 49.597218q-1.157565 3.383652-2.58226 6.67826a123.414261 123.414261 0 0 1 100.975304 119.674435 117.00313 117.00313 0 0 1-11.842783 51.556174 166.15513 166.15513 0 0 1 99.283479 150.038261c0 91.269565-77.022609 165.531826-171.141566 165.531826z m-401.586087-449.135304a84.23513 84.23513 0 0 0-86.105043 82.009043 78.358261 78.358261 0 0 0 17.808696 49.419131 20.034783 20.034783 0 0 1-10.24 31.788521 127.154087 127.154087 0 0 0-94.920348 120.386783c0 69.186783 58.857739 125.462261 131.161043 125.462261h443.881739c72.303304 0 131.161043-56.275478 131.161044-125.462261a127.154087 127.154087 0 0 0-94.831305-120.386783 20.034783 20.034783 0 0 1-10.24-31.788521 78.358261 78.358261 0 0 0 17.808696-49.419131 84.23513 84.23513 0 0 0-86.105043-82.009043h-11.575653a20.034783 20.034783 0 0 1-13.712695-34.637913 57.522087 57.522087 0 0 0 15.493565-24.486957 19.945739 19.945739 0 0 1 2.404174-5.075478 53.426087 53.426087 0 0 0 8.904348-29.740522 57.700174 57.700174 0 0 0-59.035826-56.097391H528.205913a105.872696 105.872696 0 0 1-29.562435-6.500174c-26.713043-15.226435-26.713043-50.131478-26.713043-65.001739a120.56487 120.56487 0 0 1 1.691826-15.493565c-43.898435 25.733565-77.289739 87.262609-77.289739 134.099478 0 26.713043 10.418087 60.282435 18.966261 68.296348A20.034783 20.034783 0 0 1 400.695652 431.326609zM518.322087 240.417391z" fill="#66443B" /><path d="M365.612522 569.878261a38.466783 38.466783 0 1 0 76.844521 0 38.466783 38.466783 0 0 0-76.844521 0z m215.841391 0a38.466783 38.466783 0 1 0 38.466783-38.466783A38.466783 38.466783 0 0 0 581.453913 569.878261zM512 710.38887a110.32487 110.32487 0 0 1-80.13913-35.172174 22.26087 22.26087 0 0 1 32.589913-30.274783 65.090783 65.090783 0 0 0 95.721739 0 22.26087 22.26087 0 0 1 32.589913 30.274783 110.32487 110.32487 0 0 1-80.762435 35.172174z" fill="#66443B" /></svg>