<?xml version="1.0" standalone="no"?><!DOCTYPE svg PUBLIC "-//W3C//DTD SVG 1.1//EN" "http://www.w3.org/Graphics/SVG/1.1/DTD/svg11.dtd"><svg class="icon" width="60px" height="60.00px" viewBox="0 0 1024 1024" version="1.1" xmlns="http://www.w3.org/2000/svg"><path d="M257.595077 529.309538c-138.594462 35.249231-119.118769 134.852923-119.118769 145.664 16.364308 173.784615 671.842462 188.534154 738.796307 42.811077s-106.594462-183.532308-106.594461-183.532307l-513.083077-4.94277z" fill="#913B00" /><path d="M536.123077 824.044308c-60.416 0-121.6-4.765538-177.092923-14.198154-63.606154-10.811077-117.504-27.451077-155.825231-48.108308-44.366769-23.906462-68.450462-52.893538-71.581538-86.114461l-0.039385-0.649847c0-0.512-0.118154-1.890462-0.216615-3.209846-7.857231-95.094154 63.389538-133.592615 124.534153-149.149538l0.866462-0.216616h0.905846l513.792 4.94277 0.689231 0.157538c3.505231 0.768 85.956923 19.357538 116.440615 80.423385 16.147692 32.374154 14.454154 70.281846-5.04123 112.718769-20.440615 44.484923-92.809846 77.745231-203.795693 93.696-44.977231 6.498462-94.050462 9.708308-143.635692 9.708308zM145.368615 674.619077c5.415385 54.902154 84.105846 99.229538 215.965539 121.639385 99.702154 16.955077 217.993846 18.628923 316.455384 4.470153 104.644923-15.044923 175.084308-46.316308 193.220924-85.819077 17.664-38.439385 19.416615-72.369231 5.238153-100.804923-26.230154-52.558769-98.756923-71.148308-106.397538-72.96l-511.428923-4.923077c-55.788308 14.375385-120.359385 49.388308-113.329231 134.419693 0.157538 1.673846 0.256 2.953846 0.275692 3.977846z" fill="#5B2222" /><path d="M229.553231 537.107692c-10.811077 143.990154 561.604923 178.825846 579.859692 9.156923-205.115077 131.84-399.025231 135.798154-579.859692-9.156923z" fill="#4F2000" /><path d="M322.461538 430.907077c-106.220308 27.017846-91.273846 103.345231-91.273846 111.635692 12.544 133.179077 502.744615 139.382154 564.125539 33.181539 59.726769-109.508923-79.635692-141.036308-79.635693-141.036308l-393.216-3.780923z" fill="#913B00" /><path d="M527.458462 656.443077c-56.142769 0-112.068923-5.395692-159.940924-15.852308-88.241231-19.278769-139.086769-53.878154-143.182769-97.398154l-0.039384-0.649846c0-0.492308-0.078769-1.28-0.157539-2.323692-6.124308-74.003692 49.171692-103.916308 96.630154-115.987692l0.866462-0.216616 394.830769 3.800616 0.728615 0.157538c2.894769 0.649846 71.148308 16.600615 93.203692 65.398154 11.342769 25.088 8.290462 53.897846-9.019076 85.661538-27.372308 47.340308-122.131692 65.28-176.187077 71.75877-31.606154 3.780923-64.708923 5.651692-97.732923 5.651692zM238.08 542.168615c3.682462 36.942769 50.668308 67.111385 132.391385 84.952616 74.614154 16.305231 169.216 20.027077 253.065846 9.984 87.630769-10.515692 148.086154-34.146462 165.809231-64.827077 15.044923-27.588923 17.939692-52.263385 8.507076-73.196308-18.116923-40.172308-76.130462-55.768615-83.042461-57.501538l-391.502769-3.780923c-60.947692 15.753846-89.698462 49.821538-85.444923 101.277538 0.098462 1.299692 0.177231 2.264615 0.216615 3.091692z" fill="#5B2222" /><path d="M322.461538 430.907077c9.097846 69.316923 312.733538 112.462769 396.642462 4.667077-140.307692 67.131077-272.955077 69.139692-396.642462-4.667077z" fill="#4F2000" /><path d="M433.604923 159.271385c26.545231 167.581538-68.017231 167.581538-101.218461 200.763077s-19.908923 64.708923 0 81.309538 131.072 64.708923 313.580307 33.181538c165.927385-44.8 18.254769-155.963077 18.254769-155.963076s-150.980923-122.781538-194.126769-150.980924-36.489846-8.310154-36.489846-8.310153z" fill="#913B00" /><path d="M528.541538 491.835077c-42.161231 0-76.366769-4.253538-101.612307-9.097846-49.585231-9.491692-86.055385-25.363692-98.934154-36.115693-13.686154-11.401846-21.937231-26.919385-22.646154-42.555076-0.768-16.955077 6.695385-33.417846 22.173539-48.896 8.073846-8.073846 19.101538-14.158769 30.779076-20.578462 39.325538-21.661538 88.260923-48.620308 68.568616-173.764923-1.102769-3.958154-0.787692-9.472 3.623384-12.878769 7.227077-5.572923 19.810462-1.555692 43.401847 13.863384 42.752 27.943385 187.175385 145.289846 194.599384 151.335385 4.214154 3.190154 71.936 55.394462 62.227693 105.668923-5.415385 27.982769-33.319385 48.974769-82.924308 62.385231l-0.630154 0.137846c-44.484923 7.660308-84.204308 10.496-118.626462 10.496zM440.654769 159.783385c20.716308 133.750154-34.993231 164.430769-75.697231 186.88-11.264 6.203077-21.011692 11.579077-27.687384 18.254769-12.642462 12.642462-18.747077 25.6-18.156308 38.537846 0.531692 11.795692 6.990769 23.670154 17.703385 32.590769 12.8 10.673231 78.670769 42.121846 191.172923 42.121846 34.520615 0 73.393231-2.953846 116.519384-10.377846 43.913846-11.894154 68.352-29.262769 72.684308-51.593846 8.192-42.338462-56.438154-91.648-57.088-92.140308l-0.196923-0.157538c-1.516308-1.220923-151.197538-122.88-193.555692-150.567385-14.592-9.511385-22.134154-12.583385-25.698462-13.548307z" fill="#5B2222" /><path d="M433.604923 159.271385c39.719385 35.406769 55.591385 121.954462-12.445538 186.663384 0 0-37.277538 32.452923-35.682462 53.917539 6.754462 90.230154 355.288615 56.812308 332.760615-18.097231 17.092923 36.470154 6.557538 69.218462-72.270769 92.770461-102.045538 24.064-321.063385 14.099692-334.336-65.536-4.982154-64.708923 79.635692-71.345231 102.872616-111.163076 26.663385-40.467692 26.958769-87.000615 19.101538-138.555077z" fill="#C97E4B" /><path d="M240.600615 486.025846C228.430769 653.784615 817.230769 638.030769 798.464 486.025846c15.182769 25.324308 18.766769 53.543385 0 83.593846C734.523077 681.353846 319.015385 673.476923 240.600615 569.639385c-12.169846-18.254769-14.788923-54.606769 0-83.613539z" fill="#C97E4B" /><path d="M137.550769 650.043077C187.076923 797.538462 809.353846 850.707692 892.061538 650.043077c-3.544615 47.123692-20.558769 87.177846-72.467692 108.859077C659.692308 829.046154 399.753846 823.138462 234.102154 758.882462c-65.575385-25.048615-95.606154-62.050462-96.551385-108.839385z" fill="#4F2000" /></svg>