<?xml version="1.0" standalone="no"?><!DOCTYPE svg PUBLIC "-//W3C//DTD SVG 1.1//EN" "http://www.w3.org/Graphics/SVG/1.1/DTD/svg11.dtd"><svg class="icon" width="50px" height="50.00px" viewBox="0 0 1024 1024" version="1.1" xmlns="http://www.w3.org/2000/svg"><path d="M875.43 95.26H685.16c-13.13 0-23.8 8.19-23.8 18.27v785.34c0 9.87 5.33 28.47 41.01 42.16 21.22 8.14 48.88 12.63 77.9 12.63 29.06 0 56.72-4.48 77.94-12.63 35.68-13.7 41.01-32.29 41.01-42.16V113.53c0-10.08-10.66-18.27-23.79-18.27zM613.81 95.26h-190.3c-13.13 0-23.76 8.19-23.76 18.27v785.34c0 9.87 5.33 28.47 41.01 42.16 21.22 8.14 48.88 12.63 77.9 12.63 29.02 0 56.72-4.48 77.9-12.63 35.68-13.7 41.01-32.29 41.01-42.16V113.53c0-10.08-10.63-18.27-23.76-18.27zM352.16 95.26H161.89c-13.13 0-23.8 8.19-23.8 18.27v785.34c0 9.87 5.33 28.47 41.04 42.16 21.18 8.14 48.85 12.63 77.9 12.63 29.02 0 56.69-4.48 77.9-12.63 35.68-13.7 41.01-32.29 41.01-42.16V113.53c0.01-10.08-10.65-18.27-23.78-18.27z" fill="#ED5564" /><path d="M875.43 95.26h-23.8c13.14 0 23.8 8.19 23.8 18.27v785.34c0 9.87-5.33 28.47-41.01 42.16-18.29 7.02-41.39 11.31-66.02 12.37 3.94 0.16 7.91 0.25 11.88 0.25 29.06 0 56.72-4.48 77.94-12.63 35.68-13.7 41.01-32.29 41.01-42.16V113.53c-0.01-10.08-10.67-18.27-23.8-18.27zM613.81 95.26h-23.8c13.14 0 23.8 8.19 23.8 18.27v785.34c0 9.87-5.33 28.47-41.01 42.16-18.29 7.02-41.39 11.31-66.02 12.37 3.94 0.16 7.87 0.25 11.88 0.25 29.02 0 56.72-4.48 77.9-12.63 35.68-13.7 41.01-32.29 41.01-42.16V113.53c0-10.08-10.63-18.27-23.76-18.27zM352.16 95.26H328.4c13.14 0 23.76 8.19 23.76 18.27v785.34c0 9.87-5.33 28.47-41.01 42.16-18.29 7.02-41.39 11.31-66.02 12.37 3.94 0.16 7.91 0.25 11.92 0.25 29.02 0 56.69-4.48 77.9-12.63 35.68-13.7 41.01-32.29 41.01-42.16V113.53c-0.01-10.08-10.67-18.27-23.8-18.27z" fill="#FFFFFF" /><path d="M858.21 85.41C837 79.98 809.33 77 780.28 77c-29.02 0-56.68 2.98-77.9 8.41-26.44 6.77-41.01 16.76-41.01 28.12s14.56 21.34 41.01 28.11c21.22 5.43 48.88 8.41 77.9 8.41 29.06 0 56.72-2.98 77.94-8.41 26.44-6.77 41.01-16.75 41.01-28.11-0.01-11.36-14.57-21.35-41.02-28.12zM596.56 85.41c-21.18-5.43-48.88-8.41-77.9-8.41-29.02 0-56.68 2.98-77.9 8.41-26.44 6.77-41.01 16.76-41.01 28.12s14.56 21.34 41.01 28.11c21.22 5.43 48.88 8.41 77.9 8.41 29.02 0 56.72-2.98 77.9-8.41 26.44-6.77 41.01-16.75 41.01-28.11s-14.56-21.35-41.01-28.12zM334.95 85.41c-21.22-5.43-48.88-8.41-77.9-8.41-29.06 0-56.72 2.98-77.9 8.41-26.44 6.77-41.04 16.76-41.04 28.12s14.6 21.34 41.04 28.11c21.18 5.43 48.85 8.41 77.9 8.41 29.02 0 56.69-2.98 77.9-8.41 26.44-6.77 41.01-16.75 41.01-28.11-0.01-11.36-14.57-21.35-41.01-28.12z" fill="#DA4453" /><path d="M911 408.16c-3.73-1.65-7.77-2.39-11.78-2.39v40.58c4.63 3.05 8.36 6.15 9.72 8.3-2.79 2.13-13.8 8.48-50.63 14.07-44.07 6.7-110.34 10.09-196.95 10.09-13.13 0-23.8 8.19-23.8 18.27s10.66 18.26 23.8 18.26c96.19 0 168.98-4.17 216.22-12.41 29.4-5.12 69.47-14.76 77.9-39.14 10.36-29.84-35.21-51.58-44.48-55.63zM911 590.79c-3.73-1.63-7.77-2.39-11.78-2.38V629c4.63 3.04 8.36 6.15 9.72 8.28-2.79 2.13-13.8 8.49-50.63 14.08-44.07 6.69-110.34 10.09-196.95 10.09-13.13 0-23.8 8.17-23.8 18.26 0 10.09 10.66 18.26 23.8 18.26 96.19 0 168.98-4.17 216.22-12.41 29.4-5.12 69.47-14.76 77.9-39.13 10.36-29.85-35.21-51.59-44.48-55.64zM375.95 478.8c-86.61 0-152.88-3.38-196.95-10.09-36.83-5.59-47.84-11.94-50.62-14.07 1.36-2.14 5.08-5.24 9.72-8.3v-40.58c-4.01 0-8.05 0.76-11.77 2.39-9.23 4.05-54.81 25.79-44.49 55.62 8.43 24.39 48.5 34.02 77.9 39.14 47.28 8.24 120.02 12.41 216.22 12.41 13.14 0 23.8-8.17 23.8-18.26s-10.67-18.26-23.81-18.26zM375.95 661.45c-86.61 0-152.88-3.4-196.95-10.09-36.83-5.59-47.84-11.96-50.62-14.08 1.36-2.13 5.08-5.24 9.72-8.28v-40.6c-4.01 0-8.05 0.76-11.77 2.39-9.23 4.05-54.81 25.79-44.49 55.64 8.43 24.37 48.5 34 77.9 39.13 47.28 8.24 120.02 12.41 216.22 12.41 13.14 0 23.8-8.17 23.8-18.26-0.01-10.09-10.67-18.26-23.81-18.26z" fill="#434A54" /><path d="M613.81 369.22h-190.3c-39.33 0-71.35 24.59-71.35 54.79v292.23c0 30.2 32.02 54.79 71.35 54.79h190.3c39.34 0 71.35-24.59 71.35-54.79V424.01c0-30.2-32.01-54.79-71.35-54.79z" fill="#434A54" /><path d="M613.81 350.96h-190.3c-39.33 0-71.35 24.57-71.35 54.79v292.22c0 30.22 32.02 54.79 71.35 54.79h190.3c39.34 0 71.35-24.57 71.35-54.79V405.75c0-30.22-32.01-54.79-71.35-54.79z" fill="#656D78" /><path d="M423.51 570.12a23.8 18.26 0 1 0 47.6 0 23.8 18.26 0 1 0-47.6 0Z" fill="#E6E9ED" /><path d="M494.86 570.12a23.8 18.26 0 1 0 47.6 0 23.8 18.26 0 1 0-47.6 0Z" fill="#E6E9ED" /><path d="M566.21 570.12a23.8 18.26 0 1 0 47.6 0 23.8 18.26 0 1 0-47.6 0Z" fill="#E6E9ED" /><path d="M423.51 624.92a23.8 18.26 0 1 0 47.6 0 23.8 18.26 0 1 0-47.6 0Z" fill="#E6E9ED" /><path d="M494.86 624.92a23.8 18.26 0 1 0 47.6 0 23.8 18.26 0 1 0-47.6 0Z" fill="#E6E9ED" /><path d="M566.21 624.92a23.8 18.26 0 1 0 47.6 0 23.8 18.26 0 1 0-47.6 0Z" fill="#E6E9ED" /><path d="M399.75 405.75h237.82v109.58H399.75z" fill="#A0D468" /><path d="M423.51 679.71a23.8 18.26 0 1 0 47.6 0 23.8 18.26 0 1 0-47.6 0Z" fill="#E6E9ED" /><path d="M494.86 679.71a23.8 18.26 0 1 0 47.6 0 23.8 18.26 0 1 0-47.6 0Z" fill="#E6E9ED" /><path d="M566.21 679.71a23.8 18.26 0 1 0 47.6 0 23.8 18.26 0 1 0-47.6 0Z" fill="#E6E9ED" /></svg>